<svg xmlns="http://www.w3.org/2000/svg" width="307.264" height="64" viewBox="0 0 307.264 64" fill="none"><g transform="scale(.25)">
  <defs>
    <linearGradient id="base" x1="28" y1="12" x2="204" y2="249" gradientUnits="userSpaceOnUse"><stop stop-color="#278BFF"/><stop offset=".45" stop-color="#0B5BFF"/><stop offset="1" stop-color="#043AB8"/></linearGradient>
    <radialGradient id="glow" cx="0" cy="0" r="1" gradientTransform="translate(233 15) rotate(135) scale(230)" gradientUnits="userSpaceOnUse"><stop stop-color="#00C2FF"/><stop offset="1" stop-color="#00C2FF" stop-opacity="0"/></radialGradient>
    <linearGradient id="paper" x1="69" y1="44" x2="200" y2="219" gradientUnits="userSpaceOnUse"><stop stop-color="white"/><stop offset=".65" stop-color="#F7FBFF"/><stop offset="1" stop-color="#CBEFFF"/></linearGradient>
    <linearGradient id="fold" x1="155" y1="40" x2="204" y2="97" gradientUnits="userSpaceOnUse"><stop stop-color="white"/><stop offset=".6" stop-color="#F5FAFF"/><stop offset="1" stop-color="#D7EEFF"/></linearGradient>
    <linearGradient id="ribbon" x1="63" y1="181" x2="217" y2="245" gradientUnits="userSpaceOnUse"><stop stop-color="#51D9FF"/><stop offset=".4" stop-color="#00C2FF"/><stop offset="1" stop-color="#0BD4EB"/></linearGradient>
    <filter id="shadow" x="-30%" y="-20%" width="170%" height="160%"><feDropShadow dx="0" dy="12" stdDeviation="13" flood-color="#003BA3" flood-opacity=".35"/></filter>
    <filter id="foldShadow" x="-50%" y="-30%" width="200%" height="200%"><feDropShadow dx="-4" dy="6" stdDeviation="5" flood-color="#4276B8" flood-opacity=".22"/></filter>
    <clipPath id="tile"><rect width="256" height="256" rx="64"/></clipPath>
  </defs>
  <g clip-path="url(#tile)">
    <rect width="256" height="256" rx="64" fill="url(#base)"/>
    <rect width="256" height="256" rx="64" fill="url(#glow)"/>
    <path d="M78 32H151C160 32 167 35 173 41L208 77C214 83 217 90 217 99V178C217 201 203 216 180 216H78C54 216 39 201 39 178V70C39 46 54 32 78 32Z" fill="url(#paper)" filter="url(#shadow)"/>
    <path d="M165 35V72C165 83 170 88 182 88H215C213 84 211 80 208 77L173 41C170 38 168 37 165 35Z" fill="url(#fold)" filter="url(#foldShadow)"/>
    <path d="M78 86H139M78 115H152M78 144H152" stroke="#BDD5F9" stroke-width="11" stroke-linecap="round"/>
    <path d="M39 179C63 204 89 169 121 170C161 171 169 221 216 240L244 252C219 263 191 263 169 251C139 235 128 201 107 190C85 179 69 199 53 198Z" fill="url(#ribbon)"/>
    <path d="M39 179C61 201 89 169 121 170C104 172 96 189 88 208C64 214 48 202 39 179Z" fill="#66DDFF" fill-opacity=".44"/>
  </g>
</g><g transform="translate(82 12)">
<metadata>Outlined lettering: Noto Sans SC 600 and Manrope 650; SIL Open Font License 1.1.</metadata>
<path d="M160 0V1440H385V211.5H1029V0Z" transform="translate(0.000 31) scale(0.016000 -0.016000)" fill="#071426"/>
<path d="M160 1250.5V1462.5H385V1250.5ZM160 0V1080H385V0Z" transform="translate(17.194 31) scale(0.016000 -0.016000)" fill="#071426"/>
<path d="M589.5 -510Q501 -510 419.0 -482.375Q337 -454.75 270.5 -402.25Q204 -349.75 161 -274.5L368.5 -170.5Q401.5 -234.25 462.375 -264.625Q523.25 -295 591 -295Q673 -295 733.875 -266.0Q794.75 -237 827.375 -179.75Q860 -122.5 858.5 -37.5V267H886V1080H1084V-40.5Q1084 -82.75 1080.875 -120.875Q1077.75 -159 1069.5 -196.5Q1046 -303.5 979.75 -372.75Q913.5 -442 813.5 -476.0Q713.5 -510 589.5 -510ZM571 -30Q421 -30 310.875 45.125Q200.75 120.25 140.375 249.375Q80 378.5 80 540.5Q80 704 140.875 832.625Q201.75 961.25 313.375 1035.625Q425 1110 577.5 1110Q730.75 1110 835.375 1035.375Q940 960.75 993.75 831.875Q1047.5 703 1047.5 540.5Q1047.5 378.75 993.5 249.625Q939.5 120.5 833.5 45.25Q727.5 -30 571 -30ZM604 172.5Q704 172.5 766.25 219.25Q828.5 266 857.25 349.125Q886 432.25 886 540.5Q886 649.25 857.125 732.125Q828.25 815 767.5 861.25Q706.75 907.5 611.5 907.5Q511 907.5 446.0 858.25Q381 809 349.75 725.75Q318.5 642.5 318.5 540.5Q318.5 437.5 349.5 354.0Q380.5 270.5 443.625 221.5Q506.75 172.5 604 172.5Z" transform="translate(26.164 31) scale(0.016000 -0.016000)" fill="#071426"/>
<path d="M892.5 0V525.5Q892.5 582.25 883.625 646.5Q874.75 710.75 847.5 768.125Q820.25 825.5 768.25 861.5Q716.25 897.5 630 897.5Q579 897.5 531.625 880.625Q484.25 863.75 447.25 825.125Q410.25 786.5 388.375 721.25Q366.5 656 366.5 558.5L230 613.5Q230 755.75 284.25 868.125Q338.5 980.5 442.0 1045.25Q545.5 1110 694.5 1110Q810.25 1110 887.375 1072.0Q964.5 1034 1011.25 973.625Q1058 913.25 1081.5 843.875Q1105 774.5 1112.75 710.125Q1120.5 645.75 1120.5 601.5V0ZM138.5 0V1440H339.5V672.5H366.5V0Z" transform="translate(45.998 31) scale(0.016000 -0.016000)" fill="#071426"/>
<path d="M765.5 0Q661.25 -20.25 560.875 -17.25Q460.5 -14.25 381.625 20.75Q302.75 55.75 262 132Q226 200.75 223.75 271.75Q221.5 342.75 221.5 433V1380H446.5V445Q446.5 380.25 448.0 331.625Q449.5 283 468.5 251Q504.5 190.25 583.25 182.375Q662 174.5 765.5 189.5ZM20 901.5V1080H765.5V901.5Z" transform="translate(66.096 31) scale(0.016000 -0.016000)" fill="#071426"/>
<path d="M140 0V1440H728.5Q749.5 1440 781.625 1438.5Q813.75 1437 841.5 1432Q964.25 1413 1045.25 1349.375Q1126.25 1285.75 1165.875 1189.25Q1205.5 1092.75 1205.5 975Q1205.5 857.25 1165.5 760.75Q1125.5 664.25 1044.5 600.625Q963.5 537 841.5 518Q813.75 514 781.25 512.0Q748.75 510 728.5 510H365V0ZM365 721.5H719.5Q739.5 721.5 764.125 723.5Q788.75 725.5 810.5 731Q872.5 746.25 909.125 785.375Q945.75 824.5 961.625 875.0Q977.5 925.5 977.5 975Q977.5 1024.5 961.625 1075.0Q945.75 1125.5 909.125 1164.625Q872.5 1203.75 810.5 1219Q788.75 1224.75 764.125 1226.625Q739.5 1228.5 719.5 1228.5H365Z" transform="translate(80.034 31) scale(0.016000 -0.016000)" fill="#071426"/>
<path d="M443.5 -30Q325 -30 243.875 14.375Q162.75 58.75 121.375 132.625Q80 206.5 80 295Q80 375 107.625 437.125Q135.25 499.25 190.625 543.875Q246 588.5 330.5 616.5Q399 637.75 488.125 654.125Q577.25 670.5 678.75 684.625Q780.25 698.75 886 714.5L805 669Q806.25 788.75 753.125 845.875Q700 903 572 903Q493 903 423.625 866.125Q354.25 829.25 326.5 742.5L119 807Q158.75 945 271.375 1027.5Q384 1110 573 1110Q717.75 1110 826.0 1061.75Q934.25 1013.5 986 906.5Q1013.5 851.5 1019.5 792.25Q1025.5 733 1025.5 664V0H827.5V240.5L863 205.5Q793 85.25 692.375 27.625Q591.75 -30 443.5 -30ZM486 151.5Q571.5 151.5 632.5 181.875Q693.5 212.25 730.25 257.625Q767 303 779 348Q796.75 395 799.375 454.875Q802 514.75 802 551L873 527.5Q769 511.25 689.375 499.0Q609.75 486.75 549.25 475.125Q488.75 463.5 441.5 448.5Q399.25 433.5 367.875 413.125Q336.5 392.75 319.0 364.5Q301.5 336.25 301.5 297.5Q301.5 256.75 321.875 223.625Q342.25 190.5 383.125 171.0Q424 151.5 486 151.5Z" transform="translate(100.532 31) scale(0.016000 -0.016000)" fill="#071426"/>
<path d="M589.5 -510Q501 -510 419.0 -482.375Q337 -454.75 270.5 -402.25Q204 -349.75 161 -274.5L368.5 -170.5Q401.5 -234.25 462.375 -264.625Q523.25 -295 591 -295Q673 -295 733.875 -266.0Q794.75 -237 827.375 -179.75Q860 -122.5 858.5 -37.5V267H886V1080H1084V-40.5Q1084 -82.75 1080.875 -120.875Q1077.75 -159 1069.5 -196.5Q1046 -303.5 979.75 -372.75Q913.5 -442 813.5 -476.0Q713.5 -510 589.5 -510ZM571 -30Q421 -30 310.875 45.125Q200.75 120.25 140.375 249.375Q80 378.5 80 540.5Q80 704 140.875 832.625Q201.75 961.25 313.375 1035.625Q425 1110 577.5 1110Q730.75 1110 835.375 1035.375Q940 960.75 993.75 831.875Q1047.5 703 1047.5 540.5Q1047.5 378.75 993.5 249.625Q939.5 120.5 833.5 45.25Q727.5 -30 571 -30ZM604 172.5Q704 172.5 766.25 219.25Q828.5 266 857.25 349.125Q886 432.25 886 540.5Q886 649.25 857.125 732.125Q828.25 815 767.5 861.25Q706.75 907.5 611.5 907.5Q511 907.5 446.0 858.25Q381 809 349.75 725.75Q318.5 642.5 318.5 540.5Q318.5 437.5 349.5 354.0Q380.5 270.5 443.625 221.5Q506.75 172.5 604 172.5Z" transform="translate(119.110 31) scale(0.016000 -0.016000)" fill="#071426"/>
<path d="M625 -30Q462.25 -30 339.75 40.875Q217.25 111.75 148.625 237.875Q80 364 80 529.5Q80 706.5 147.375 836.75Q214.75 967 334.625 1038.5Q454.5 1110 613 1110Q779.25 1110 896.0 1032.5Q1012.75 955 1070.125 813.0Q1127.5 671 1114.75 477H890.5V559Q889 741 823.75 826.5Q758.5 912 622 912Q469.75 912 394.125 816.75Q318.5 721.5 318.5 540Q318.5 369 394.125 275.25Q469.75 181.5 613 181.5Q706.5 181.5 774.5 223.5Q842.5 265.5 880 344.5L1101.5 276Q1039.25 130.5 910.375 50.25Q781.5 -30 625 -30ZM246.5 477V649.5H1003.5V477Z" transform="translate(138.944 31) scale(0.016000 -0.016000)" fill="#071426"/>
<path d="M140 0V1440H728.5Q749.5 1440 781.625 1438.5Q813.75 1437 841.5 1432Q964.25 1413 1045.25 1349.375Q1126.25 1285.75 1165.875 1189.25Q1205.5 1092.75 1205.5 975Q1205.5 857.25 1165.5 760.75Q1125.5 664.25 1044.5 600.625Q963.5 537 841.5 518Q813.75 514 781.25 512.0Q748.75 510 728.5 510H365V0ZM365 721.5H719.5Q739.5 721.5 764.125 723.5Q788.75 725.5 810.5 731Q872.5 746.25 909.125 785.375Q945.75 824.5 961.625 875.0Q977.5 925.5 977.5 975Q977.5 1024.5 961.625 1075.0Q945.75 1125.5 909.125 1164.625Q872.5 1203.75 810.5 1219Q788.75 1224.75 764.125 1226.625Q739.5 1228.5 719.5 1228.5H365Z" transform="translate(165.370 31) scale(0.016000 -0.016000)" fill="#0B5BFF"/>
<path d="M140 0V1440H595Q614.25 1440 668.25 1439.0Q722.25 1438 772 1431.5Q942.25 1410 1059.125 1310.25Q1176 1210.5 1236.0 1056.875Q1296 903.25 1296 720Q1296 536.5 1236.0 382.875Q1176 229.25 1059.125 129.625Q942.25 30 772 8.5Q722.5 2.25 668.125 1.125Q613.75 0 595 0ZM369.5 213H595Q627.25 213 673.875 214.875Q720.5 216.75 756.5 223.5Q862.5 243.75 928.75 316.875Q995 390 1026.25 495.875Q1057.5 601.75 1057.5 720Q1057.5 842 1025.5 947.875Q993.5 1053.75 926.875 1125.375Q860.25 1197 756.5 1216.5Q720.5 1224 673.5 1225.5Q626.5 1227 595 1227H369.5Z" transform="translate(185.868 31) scale(0.016000 -0.016000)" fill="#0B5BFF"/>
<path d="M140 0V1440H1000V1215H365V832.5H880V607.5H365V0Z" transform="translate(208.374 31) scale(0.016000 -0.016000)" fill="#0B5BFF"/>
</g></svg>
